<?xml version="1.0" standalone="no"?>
<!DOCTYPE svg PUBLIC "-//W3C//DTD SVG 20010904//EN"
 "http://www.w3.org/TR/2001/REC-SVG-20010904/DTD/svg10.dtd">
<svg version="1.0" xmlns="http://www.w3.org/2000/svg"
 width="2509.000000pt" height="2509.000000pt" viewBox="0 0 2509.000000 2509.000000"
 preserveAspectRatio="xMidYMid meet">

<g transform="translate(0.000000,2509.000000) scale(0.100000,-0.100000)"
fill="#000000" stroke="none">
<path d="M10655 16004 c-228 -51 -403 -218 -460 -439 -19 -75 -19 -241 0 -321
64 -271 296 -444 594 -444 119 0 203 19 295 67 85 45 198 153 244 234 67 118
91 313 57 458 -33 137 -134 280 -258 361 -126 83 -322 118 -472 84z"/>
<path d="M14275 16014 c-142 -21 -247 -74 -351 -178 -126 -127 -174 -245 -174
-431 0 -155 35 -267 119 -382 37 -51 127 -124 194 -159 116 -60 303 -80 450
-49 145 30 310 153 385 286 67 118 91 313 57 458 -46 194 -206 366 -397 426
-78 25 -215 39 -283 29z"/>
<path d="M10630 14403 c-84 -10 -236 -46 -331 -79 -296 -103 -543 -286 -724
-538 -172 -240 -296 -588 -334 -938 -16 -143 -13 -482 4 -632 55 -467 213
-824 484 -1097 221 -222 442 -335 791 -406 124 -25 526 -25 660 0 376 71 702
273 907 561 70 99 168 285 208 396 25 70 85 289 85 311 0 5 -147 9 -368 9
l-369 0 -17 -62 c-93 -335 -308 -541 -616 -589 -95 -15 -295 -6 -375 16 -401
111 -630 502 -652 1115 -19 535 131 955 413 1156 135 96 294 144 486 144 380
0 630 -180 738 -532 l24 -78 368 0 c307 0 368 2 368 14 0 32 -33 187 -56 265
-96 318 -337 612 -636 775 -159 86 -359 151 -555 181 -95 14 -406 19 -503 8z"/>
<path d="M14052 14384 c-555 -81 -964 -415 -1165 -954 -34 -92 -87 -282 -87
-314 0 -14 40 -16 369 -16 l369 0 12 53 c7 28 28 90 47 137 100 244 283 401
530 452 150 31 324 22 455 -22 323 -108 528 -406 592 -860 45 -320 21 -664
-64 -915 -110 -327 -303 -523 -591 -602 -97 -27 -355 -24 -464 5 -200 54 -342
168 -432 349 -27 54 -58 128 -68 166 l-18 67 -368 0 -369 0 0 -24 c0 -45 31
-187 60 -277 167 -509 634 -867 1225 -938 130 -16 378 -14 497 4 353 53 618
184 858 425 260 259 418 597 487 1040 25 159 25 591 0 765 -121 833 -587 1351
-1315 1460 -121 19 -431 18 -560 -1z"/>
<path d="M12407 12999 c-96 -23 -229 -123 -281 -213 -82 -142 -83 -353 -2
-490 62 -105 201 -197 325 -214 245 -34 457 89 531 309 19 54 21 80 18 169 -6
127 -27 190 -95 275 -97 120 -214 175 -368 174 -49 -1 -107 -5 -128 -10z"/>
</g>
</svg>
